<?xml version="1.0" encoding="UTF-8"?>
<svg width="800" height="800" viewBox="0 0 800 800" fill="none" xmlns="http://www.w3.org/2000/svg">
  <!-- Background Elements -->
  <circle cx="400" cy="400" r="300" fill="#E3F2FD" opacity="0.5"/>
  <circle cx="400" cy="400" r="200" fill="#BBDEFB" opacity="0.5"/>
  
  <!-- Graph Elements -->
  <path d="M200,600 C300,550 400,450 500,300 S700,200 800,150" stroke="#2196F3" stroke-width="8" fill="none"/>
  <path d="M200,600 C300,500 400,400 500,250 S700,150 800,100" stroke="#1976D2" stroke-width="8" fill="none"/>
  
  <!-- Dots -->
  <circle cx="300" cy="500" r="15" fill="#1976D2"/>
  <circle cx="400" cy="400" r="15" fill="#1976D2"/>
  <circle cx="500" cy="300" r="15" fill="#1976D2"/>
  <circle cx="600" cy="200" r="15" fill="#1976D2"/>
  
  <!-- Search Icon -->
  <circle cx="350" cy="350" r="100" stroke="#1565C0" stroke-width="12" fill="none"/>
  <line x1="420" y1="420" x2="500" y2="500" stroke="#1565C0" stroke-width="12" stroke-linecap="round"/>
  
  <!-- Decorative Elements -->
  <rect x="150" y="200" width="40" height="40" fill="#64B5F6" opacity="0.8"/>
  <circle cx="650" cy="350" r="25" fill="#64B5F6" opacity="0.8"/>
  <polygon points="200,500 230,550 170,550" fill="#64B5F6" opacity="0.8"/>
  <rect x="600" y="450" width="30" height="30" transform="rotate(45 615 465)" fill="#64B5F6" opacity="0.8"/>
  
  <!-- Keywords -->
  <g transform="translate(250,250)" fill="#1976D2" opacity="0.8">
    <text font-family="Arial" font-size="24" fill="#1976D2">#1 Ranking</text>
  </g>
  <g transform="translate(500,400)" fill="#1976D2" opacity="0.8">
    <text font-family="Arial" font-size="24" fill="#1976D2">SEO</text>
  </g>
  <g transform="translate(350,550)" fill="#1976D2" opacity="0.8">
    <text font-family="Arial" font-size="24" fill="#1976D2">Growth</text>
  </g>
</svg>
