<svg version="1.2" xmlns="http://www.w3.org/2000/svg" viewBox="0 0 1511 390" width="1511" height="390">
	<title>Blue-svg</title>
	<style>
		.s0 { fill: #ff8800 } 
		.s1 { fill: #054ada } 
	</style>
	<g id="Logo">
		<g id="Layer">
			<path id="Layer" fill-rule="evenodd" class="s0" d="m26.1 88.6h221.1v293.3h-59.6v-32h-4.9c-29.5 30.2-53.4 40-95.2 40-52.8 0-87.2-29.5-87.2-78.7v-13.5c0-67.1 28.2-91.1 118.5-97.8l55.9-4.3v-41.8h-148.6zm148.6 164.1l-44.9 4.3c-47.3 4.4-57.7 11.1-58.3 39.4-0.6 20.3 9.8 29.5 34.4 29.5 22.7 0 50.4-12.3 68.8-30.7z"/>
			<path id="Layer" class="s1" d="m1422.3 206.7l-44.2-4.3c-24.6-2.5-30.7-8.6-30.7-28.3 0-22.1 8.6-27.7 43-27.7 30.7 0 39.3 4.9 43.6 25.8h68.8c-1.8-70.1-23.3-87.9-108.7-87.9-93.4 0-116.8 17.9-116.8 89.8 0 65.8 17.2 83.6 86.7 90.4l36.2 3.7c32.6 3 40.6 9.2 40.6 28.9 0 23.9-9.9 30.1-49.8 30.1-35 0-44.2-5.5-46-28.3h-69.4c1.8 72.6 23.9 91.1 112.4 91.1 98.3 0 122.8-19.7 122.8-99.7 0-59.6-17.8-76.8-88.4-83.6z"/>
			<path id="Layer" fill-rule="evenodd" class="s1" d="m1048.9 259.6h-175.1c2.4 54.7 14.1 67.6 59.6 67.6 30.1 0 38.7-4.3 46.6-24h70.7c-10.5 64-41.8 86.8-116.1 86.8-103.2 0-135.2-38.8-135.2-155.6 0-107 35-150.1 128.4-150.1 93.4 0 126 33.2 126 127.9 0 12.3-1.9 31.4-4.9 47.4zm-63.9-57.9c-1.2-41.2-14.8-56.5-54.1-56.5-39.3 0-55.9 15.4-56.5 56.5z"/>
			<path id="Layer" class="s1" d="m489.2 88.6h-114.8v-87.9h-73.1v381.2h73.1v-227.5h104.4v227.5h73.1v-233.6h-62.7v-59.7z"/>
			<path id="Layer" class="s1" d="m1094.9 101.5v280.4h73.1v-230.6h87.8v-62.7h-87.8v-8c0.6-17.2 4.9-22.1 19-22.1h79.9v-57.8h-86c-58.4 0-86 17.8-86 100.8z"/>
			<path id="Layer" class="s1" d="m606 381.9h73v-224.4h108.8v-68.9h-181.8v293.3z"/>
		</g>
	</g>
</svg>