<svg xmlns="http://www.w3.org/2000/svg" viewBox="0 0 238 153"><g fill="none" stroke-width="2"><path stroke="#b5cfa5" d="M43.97 35.85q-1.24-.3-2.43-.04-.53.11-.74.61L27.6 68.17a1.09 1.08 44.7 0 0 .01.88l1 2.26" vector-effect="non-scaling-stroke"/><path stroke="#94d6d0" d="M28.61 71.31q2.58 5.51 5.47 10.31c1.96 3.26 5.06 1.67 7.55.21q8.05-4.75 16.07-9.88a.35.35 0 0 0-.19-.64l-18.05.09" vector-effect="non-scaling-stroke"/><path stroke="#b5cfa5" d="m39.46 71.4 9.53-22.69" vector-effect="non-scaling-stroke"/><path stroke="#85bede" d="M48.99 48.71q.27 0 .52.17.19.12.32.43 7.07 17.03 14.58 33.94.16.36.55.35l12.07-.15q.62 0 .38-.58L57.79 36.24a.99.99 0 0 0-.93-.61l-12.89.22" vector-effect="non-scaling-stroke"/><path stroke="#3b8e83" d="M48.99 48.71c.26-3.05-3.58-9.99-5.02-12.86" vector-effect="non-scaling-stroke"/><path stroke="#4aa675" d="m39.46 71.4-10.85-.09" vector-effect="non-scaling-stroke"/><path stroke="gray" d="M89.51 54.25c3.29.17 1.75 2.41 3.52 3.66q.77.55 1.83.28.54-.13.32-.63l-6.21-14.32a1.53 1.53 0 0 0-2.81 0l-6.09 14.18a.94.93-18.9 0 0 1.68.82l1.88-3.36q.25-.46.77-.51 2.59-.24 5.11-.12M104.79 55.58c-6.92 2.75-5.57-8.08-5.52-12.3q0-.53-.53-.53h-1.27q-.62 0-.65.62c-.24 5.84-1.05 14.17 5.65 14.82 8.62.84 7.41-9.59 7.24-14.72q-.01-.41-.34-.64-.86-.62-1.8.09-.31.24-.31.64c-.02 3.27 1.18 10.57-2.47 12.02M117.75 45.75V57.5q0 .75.75.75h1q.75 0 .75-.75V45.51a.55.54-84.4 0 1 .65-.54c1.74.36 3.94.62 3.86-1.86q-.02-.42-.44-.42l-10.97.09q-.62 0-.61.62l.03 1.16q.03.84.86.77l3.37-.27a.69.69 0 0 1 .75.69M141.53 50.35a7.84 7.84 0 0 0-7.84-7.84 7.84 7.84 0 0 0-7.84 7.84 7.84 7.84 0 0 0 7.84 7.84 7.84 7.84 0 0 0 7.84-7.84M144.48 43.55l.02 13.66a.99.99 0 0 0 .99.99l4.1-.01a8.39 7.73-.1 0 0 8.38-7.74v-.18a8.39 7.73-.1 0 0-8.4-7.72l-4.1.01a.99.99 0 0 0-.99.99M163.97 55.75a.47.47 0 0 1-.47-.47v-3.31a.47.47 0 0 1 .47-.47h4.29a.47.47 0 0 0 .46-.37l.29-1.31a.47.47 0 0 0-.46-.57h-4.58a.47.47 0 0 1-.47-.47v-3.37a.47.47 0 0 1 .5-.47l7.16.39a.47.47 0 0 0 .5-.43l.12-1.62a.47.47 0 0 0-.46-.5l-10.1-.08a.47.47 0 0 0-.47.47v14.3a.47.47 0 0 0 .45.47l10.06.37a.47.47 0 0 0 .49-.47v-1.62a.47.47 0 0 0-.47-.47h-7.31M182.17 55.32c-2.14 1.19-4.39.47-6.44-1.06a.58.58 0 0 0-.9.27l-.32.93q-.29.83.45 1.3 4.92 3.13 8.93.17a3.943 3.943 0 0 0 1.08-5.16c-1.14-1.98-4.88-3.04-7.08-3.88a1.54 1.54 0 0 1 .19-2.93q2.82-.7 5.44.55.8.39.89-.5l.11-1.14q.06-.59-.5-.78c-2.93-.99-7.5-1.27-9.09 1.92-2.07 4.12 4.64 6.16 7.02 7.07a1.79 1.79 0 0 1 .22 3.24M190.75 49.48v-6.23q0-.5-.5-.5h-1.23q-.51 0-.51.51-.02 6.82-.01 13.65.01.8.32 1.11.5.51 1.53.07.4-.17.4-.61v-5.27q0-3.16 1.99-.7c1.35 1.67 5.84 7.82 8.16 6.57q.47-.26.1-.66l-6.55-6.91q-.4-.42 0-.85l5.88-6.39a.39.39 0 0 0-.14-.62q-1.74-.73-3.04.76-2.74 3.15-5.7 6.34a.4.4 0 0 1-.7-.27M204.67 57.97q.25.12.39-.11.68-1.06-.01-2.17-.3-.5-.82-.23-.79.4-.74 1.29.03.49.39.75.3.23.79.47M126.65 68.02q-.47-3.37 2.62-3.4a.59.59 0 0 0 .16-1.16c-2.98-.91-4.31 1.17-4.37 3.81q-.01.5-.49.64l-1.62.46a.43.43 0 0 0 .03.84l1.59.35q.43.09.43.52v7.86q0 .57.57.56h.62q.6 0 .59-.6l-.11-7.92q0-.35.35-.41l1.8-.27a.53.52 57.5 0 0 .21-.96q-1.02-.69-2.09-.17-.25.13-.29-.15M153.1 69.11c-9.36-6.32-8.59 15.15.15 8.32q.49-.38.74.19.27.62.86.95.68.37.67-.4l-.07-13.95q0-.72-.72-.72h-.48q-.5 0-.5.5v4.77q0 .78-.65.34M131.481 65.781a1.07.89 114.8 0 0 1.257-.598 1.07.89 114.8 0 0-.36-1.344 1.07.89 114.8 0 0-1.256.598 1.07.89 114.8 0 0 .36 1.344M120.947 65.155a1.03.86 18.4 0 0-.706-1.141 1.03.86 18.4 0 0-1.248.49 1.03.86 18.4 0 0 .706 1.142 1.03.86 18.4 0 0 1.248-.49M90.6 76.73c-11.88 2.85-9.38-14 .01-10.32a.5.49-86.7 0 0 .66-.59c-.99-3.67-12.27-.43-10.35 7.46 1.28 5.27 4.84 5.27 9.38 5.16q.85-.02.94-1.17a.52.52 0 0 0-.64-.54M166.9 75.47q-.85-5.03-.1-10.07a.57.56 4.4 0 0-.56-.65h-.94q-.55 0-.55.55c0 3.29-.7 9.07 1.12 11.49 2.12 2.82 8.62 2.38 9.35-1.81q.69-3.99-.09-9.67-.05-.36-.4-.49-1.24-.45-1.24.67 0 4.6.02 9.29a1.34 1.33-23.1 0 1-.38.93q-2.64 2.74-5.8.44a1.03 1.03 0 0 1-.43-.68M114.67 69.59l1.93-.29q.16-.03.16-.19-.02-.25.02-.51.04-.35-.31-.35h-1.66a.55.55 0 0 1-.53-.69l.21-.8a.87.87 0 0 0-1.22-1q-.94.46-.52 1.47a.72.71-19.2 0 1-.47.96q-1.75.49-3.43-.1-.57-.19-1 .22l-1.21 1.16a.45.45 0 0 1-.76-.28q-.1-1.02-1.09-.95-.42.04-.42.46l.18 9.3q.01.5.51.5h.69q.5 0 .5-.5v-6.02a1.42 1.38-25.1 0 1 .35-.92q2.27-2.59 5.61-1.53.49.15.5.67l.12 7.41q.02.75.76.79l2.93.15a.56.56 0 0 0 .16-1.1l-1.8-.43q-.51-.12-.52-.64l-.11-6.29q-.01-.44.42-.5M95.98 73.75h5.47q.55 0 .53-.55c-.15-5.83-6.81-7.29-8.54-1.97-1.6 4.95 2.39 8.88 7.21 7.13q.34-.13.49-.34.2-.29.1-.74a.35.34-18 0 0-.48-.24q-3.57 1.62-5.69-1.61-1.1-1.68.91-1.68M132.732 68.758a.7.7 0 0 0-.701-.698h-.34a.7.7 0 0 0-.699.701l.016 9.06a.7.7 0 0 0 .701.7l.34-.001a.7.7 0 0 0 .699-.701l-.016-9.06" vector-effect="non-scaling-stroke"/><path stroke="gray" d="M137.52 73.75h5.92q.5 0 .65-.48c1.74-5.77-7.72-7.53-8.6-.9-.66 4.96 3.59 7.59 8.28 5.69a.44.42 69.6 0 0 .24-.55q-.21-.6-.71-.42-4.99 1.79-6.17-2.84-.13-.5.39-.5M180.2 77.56l-1.01-.38a.64.64 0 0 0-.45 1.2q3.22 1.22 5.52-1.31a2.24 2.24 0 0 0-.52-3.43l-3.21-1.91a1.32 1.32 0 0 1 .73-2.46l2.66.13q.33.01.34-.32.02-.28-.11-.51-.21-.37-.83-.52-2.87-.7-4.39 1.09c-2.46 2.89 2 4.46 3.69 5.56a1.35 1.34-38.4 0 1-.28 2.39l-1.3.47q-.42.16-.84 0M188.58 74.81a.74.74 0 0 1 .67-1.06h5.52q.62 0 .7-.62c.88-7.66-9.95-6.19-8.51 1.32q.91 4.75 6.86 4.15 1.06-.11 1.46-.97a.4.4 0 0 0-.5-.55q-4.31 1.63-6.2-2.27M199.74 69.28q-.22-.98-1.09-1.27-.54-.18-.53.39l.19 9.51a.6.6 0 0 0 .6.59h.34q.75 0 .75-.75v-6.01q0-.7.61-1.03l2.72-1.49a.66.66 0 0 0-.43-1.22q-1.47.26-2.45 1.45-.53.64-.71-.17M120.82 68.705a.43.43 0 0 0-.438-.422l-.8.016a.43.43 0 0 0-.421.438l.179 9.338a.43.43 0 0 0 .438.422l.8-.016a.43.43 0 0 0 .421-.438l-.179-9.338M77.76 123.5H83a.71.7-6.1 0 1 .69.55q.43 1.96 1.91 3.32a.73.73 0 0 0 1.17-.83l-5.07-11.73a1.41 1.41 0 0 0-2.59-.01l-5.04 11.54a.87.87 0 0 0 .85 1.22q.23-.01.46-.12.33-.15.54-.62.64-1.42 1.19-2.87.17-.45.65-.45M96.44 122.42c-.13 3.96-5.12 5.06-5.71 1.39q-.73-4.54-.32-9.13.06-.68-.62-.68h-.53q-.52 0-.51.52c.01 2.91-.56 8.09.52 10.5 2.02 4.52 8.9 2.62 8.85-2.59l-.06-7.98q-.01-.48-.49-.46-.16.01-.35.01a.68.68 0 0 0-.71.69q.05 3.9-.07 7.73M104.53 116.26a.86.86 0 0 1 1.09-.82q.62.18 1.29.04a.75.75 0 0 0-.16-1.48l-6.74.01a.59.59 0 0 0-.15 1.16l2.06.54a1.15 1.13-82.8 0 1 .85 1.11l-.06 10.03q-.01.65.64.65h.34q.7 0 .7-.69l.14-10.55M123.01 120.743a7.19 6.73.1 0 0-7.178-6.743 7.19 6.73.1 0 0-7.202 6.718 7.19 6.73.1 0 0 7.178 6.742 7.19 6.73.1 0 0 7.202-6.717M132.24 126.03c-10.37.28-5.33-16.49 4.43-8.51a.51.5 28.2 0 0 .8-.24q.04-.13.12-.23.28-.35-.04-.66-4.54-4.33-9.74-1.32c-8.45 4.89.57 17.83 10.06 9.8a.51.5 27 0 0-.29-.89c-1.99-.14-3.18 1.99-5.34 2.05M143.5 123.52l4.67-.16q.48-.02.71.41c.59 1.13 1.32 4.2 3.16 3.63q.52-.17.3-.67l-5.2-12a1.37 1.37 0 0 0-2.51 0l-5.23 11.99q-.18.43.22.65 1.24.69 1.84-.68.72-1.64 1.26-2.68.24-.47.78-.49M154.27 114.45l-.04 12.6a.46.46 0 0 0 .46.46l3.93.02a7.11 6.58.2 0 0 7.13-6.56v-.36a7.11 6.58.2 0 0-7.09-6.6l-3.93-.02a.46.46 0 0 0-.46.46M64.3 142.3c-5.95 4.92-13.56-2.6-7.7-7.49q3.51-2.93 8.19.6a.6.6 0 0 0 .97-.48q0-.45-.53-.9c-7.83-6.53-17.53 4.34-9.47 10.05q4.9 3.47 10.34-1.22a.43.42 39.5 0 0-.07-.69q-.92-.54-1.73.13M70.42 143.42l-.05-3.77a.34.34 0 0 1 .38-.34q3.09.37 5.01.17.69-.08.41-1-.14-.48-.64-.48h-4.41q-.58 0-.61-.57l-.18-3.52a.37.37 0 0 1 .37-.39q2.37-.06 4.74-.01c.51 0 .92-.33 1.07-.78a.56.56 0 0 0-.54-.73h-6.75a.53.53 0 0 0-.53.53l.08 12.12q.01.69.69.71l6.53.17a.57.57 0 0 0 .5-.88q-.6-.95-1.98-.64-1.41.32-3.73-.16-.35-.07-.36-.43M84.98 140.51c1.76-.82 3.09-1.91 3.1-4.02.04-4.98-5.08-4.59-8.56-4.48a.87.87 0 0 0-.84.88l.1 11.71q0 .39.34.57l.6.32q.77.42.77-.46l-.01-10.72q-.01-.56.54-.7 3.2-.87 5.1 1.49a1.56 1.54 38.4 0 1 .2 1.63q-1.14 2.45-3.81 2.24-1.61-.12-.64 1.18 1.7 2.27 3.79 4.92.7.9 1.74.29.55-.32.15-.82l-2.72-3.37q-.34-.42.15-.66M93.75 134.42a.88.88 0 0 1 .83-.88l1.7-.1a.71.71 0 0 0-.04-1.41l-6.87-.04a.68.68 0 0 0-.36 1.26q.97.6 1.64-.17a.85.85 0 0 1 1.49.63q-.49 5.67-.39 10.5.01.66.31.99.47.53 1.2.26a.77.76-10.7 0 0 .49-.71v-10.33M99.99 132.29a.27.27 0 0 0-.27-.27h-1.24a.27.27 0 0 0-.27.27v12.88a.27.27 0 0 0 .27.27h1.24a.27.27 0 0 0 .27-.27v-12.88M104.77 137.55l-.07-3.42q-.02-.63.61-.63h3.94a.82.7-40.2 0 0 .25-1.5q-3.11-.02-6.22.03a.57.57 0 0 0-.56.58l.11 12.15a.57.57 0 0 0 .42.54l.91.23q.59.16.59-.45v-4.04a1.58 1.58 0 0 1 1.92-1.54q2.02.46 3.36-.68a.25.25 0 0 0-.08-.43q-2.23-.7-4.59-.34-.57.09-.59-.5M113.967 132.375a.37.37 0 0 0-.372-.368l-1.04.006a.37.37 0 0 0-.368.372l.066 12.7a.37.37 0 0 0 .372.368l1.04-.006a.37.37 0 0 0 .368-.372l-.066-12.7M118.84 139.5h4.99q.61 0 .43-.59l-.11-.35q-.18-.56-.76-.56h-4.33q-.62 0-.61-.62l.07-3.65a.56.56 0 0 1 .7-.52q2.47.65 4.94.04a.63.63 0 0 0-.15-1.25h-6.76a.56.55-.5 0 0-.56.56l.09 12.33q0 .36.36.38l6.78.3a.7.69 50.5 0 0 .13-1.38q-2.5-.38-5.02-.14a.53.52-3.5 0 1-.58-.51l-.02-3.63q0-.41.41-.41M126.65 132.77l.14 12.06a.73.73 0 0 0 .74.72l3.43-.04a7.38 6.55-.7 0 0 7.3-6.64v-.42a7.38 6.55-.7 0 0-7.46-6.46l-3.43.04a.73.73 0 0 0-.72.74M153.42 142.44c-1.29 2.73-5.37 1.52-5.4-1.19q-.05-4.32-.01-8.67.01-.58-.57-.58h-.66q-.56 0-.56.56c.03 2.74-.57 8.53.64 10.86 1.49 2.88 6.37 2.63 7.87.09 1.34-2.27.8-8 .74-10.87q-.01-.64-.66-.64-.15 0-.3-.01-.59-.03-.62.56c-.15 2.36.41 8.02-.47 9.89M163.26 143.62c-1.97 1.06-3.8-.43-4.13-2.27a.75.75 0 0 0-1.32-.34q-.66.83-.04 2c2.28 4.3 9.09 2.68 8.09-2.58a2.97 2.97 0 0 0-1.92-2.24l-3.47-1.25a1.69 1.69 0 0 1 .18-3.24q2.56-.6 3.86 1.83a.47.46-38 0 0 .76.09q.34-.38.34-.97c-.02-3.42-7.5-3.84-7.8.97-.24 3.96 4.42 2.83 6.08 4.98a2.03 2.03 0 0 1-.63 3.02M170.05 139.5h4.96a.56.56 0 0 0 .47-.86q-.56-.89-2.23-.6-.77.13-2.85-.09-.54-.06-.59-.61l-.27-3.21a.59.58-2.7 0 1 .58-.63l5.04-.01a.72.71 45.1 0 0 0-1.43l-6.64-.09q-.77-.01-.77.76v12.12a.6.59.5 0 0 .59.59l6.64.09q.52 0 .52-.51v-.39q0-.63-.62-.63h-4.52q-.59 0-.61-.58l-.12-3.48q-.02-.44.42-.44M179.97 133.62q2.94-.78 5.13 1.02a2.29 2.29 0 0 1-1.08 4.03l-2.84.47q-.59.1-.26.6 1.84 2.75 4 5.25.31.36.63.47.65.2 1.06-.18a.65.65 0 0 0 .07-.87l-2.51-3.32q-.42-.55.23-.77c4.44-1.55 3.74-7.33-.98-8.24q-1.3-.25-5.21-.02-.41.02-.4.43l.07 12.19a.84.84 0 0 0 .92.83q.2-.02.39-.01.59.01.59-.58l-.09-10.94q0-.29.28-.36M85.18 51.42a.32.32 0 0 0 .29.45l4.12.01a.32.32 0 0 0 .3-.44l-2.04-5.08a.32.32 0 0 0-.59-.01l-2.08 5.07M133.632 55.76a5.43 5.15 90.4 0 0 5.188-5.394 5.43 5.15 90.4 0 0-5.112-5.466 5.43 5.15 90.4 0 0-5.188 5.394 5.43 5.15 90.4 0 0 5.112 5.466M147.21 45.77l.02 9.2a.54.54 0 0 0 .54.54l2.62-.01a4.88 4.79-.1 0 0 4.87-4.8V50a4.88 4.79-.1 0 0-4.89-4.78l-2.62.01a.54.54 0 0 0-.54.54M150.958 77.26a3.91 2.73 89 0 0 2.662-3.958 3.91 2.73 89 0 0-2.798-3.861 3.91 2.73 89 0 0-2.662 3.957 3.91 2.73 89 0 0 2.798 3.861M95.8 72.58l3.79-.15a.69.69 0 0 0 .66-.71v-.11a2.44 2.4-2.3 0 0-2.53-2.3l-.3.01a2.44 2.4-2.3 0 0-2.35 2.49l.01.11a.69.69 0 0 0 .72.66" vector-effect="non-scaling-stroke"/><path stroke="gray" d="m137.75 72.52 4.56-.04a.22.22 0 0 0 .22-.22v-.1a2.9 2.33 89.6 0 0-2.35-2.88h-.34a2.9 2.33 89.6 0 0-2.31 2.92v.1a.22.22 0 0 0 .22.22M189.14 72.51h4.3a.51.51 0 0 0 .51-.51v-.15a2.54 2.53 89.9 0 0-2.53-2.54h-.26a2.54 2.53 89.9 0 0-2.53 2.54V72a.51.51 0 0 0 .51.51M78.22 121.37a.42.42 0 0 0 .38.6l3.63.05a.42.42 0 0 0 .39-.58l-1.76-4.09a.42.42 0 0 0-.76-.01l-1.88 4.03M121.11 120.74a5.31 5.31 0 0 0-5.31-5.31 5.31 5.31 0 0 0-5.31 5.31 5.31 5.31 0 0 0 5.31 5.31 5.31 5.31 0 0 0 5.31-5.31M143.78 121.55a.35.35 0 0 0 .33.48l3.77-.07a.35.35 0 0 0 .31-.49l-1.96-4.33a.35.35 0 0 0-.64.01l-1.81 4.4M155.98 116.14v9.24a.64.64 0 0 0 .64.64h1.76a5.62 5.13 0 0 0 5.62-5.13v-.26a5.62 5.13 0 0 0-5.62-5.13h-1.76a.64.64 0 0 0-.64.64M128.45 134.23l-.11 9a.79.79 0 0 0 .78.8l1.66.02a5.69 5.18.7 0 0 5.75-5.11v-.22a5.69 5.18.7 0 0-5.63-5.25l-1.66-.02a.79.79 0 0 0-.79.78" vector-effect="non-scaling-stroke"/></g><path fill="#fff" d="M0 0h238v153H0V0Zm43.97 35.85q-1.24-.3-2.43-.04-.53.11-.74.61L27.6 68.17a1.09 1.08 44.7 0 0 .01.88l1 2.26q2.58 5.51 5.47 10.31c1.96 3.26 5.06 1.67 7.55.21q8.05-4.75 16.07-9.88a.35.35 0 0 0-.19-.64l-18.05.09 9.53-22.69q.27 0 .52.17.19.12.32.43 7.07 17.03 14.58 33.94.16.36.55.35l12.07-.15q.62 0 .38-.58L57.79 36.24a.99.99 0 0 0-.93-.61l-12.89.22Zm45.54 18.4c3.29.17 1.75 2.41 3.52 3.66q.77.55 1.83.28.54-.13.32-.63l-6.21-14.32a1.53 1.53 0 0 0-2.81 0l-6.09 14.18a.94.93-18.9 0 0 1.68.82l1.88-3.36q.25-.46.77-.51 2.59-.24 5.11-.12Zm15.28 1.33c-6.92 2.75-5.57-8.08-5.52-12.3q0-.53-.53-.53h-1.27q-.62 0-.65.62c-.24 5.84-1.05 14.17 5.65 14.82 8.62.84 7.41-9.59 7.24-14.72q-.01-.41-.34-.64-.86-.62-1.8.09-.31.24-.31.64c-.02 3.27 1.18 10.57-2.47 12.02Zm12.96-9.83V57.5q0 .75.75.75h1q.75 0 .75-.75V45.51a.55.54-84.4 0 1 .65-.54c1.74.36 3.94.62 3.86-1.86q-.02-.42-.44-.42l-10.97.09q-.62 0-.61.62l.03 1.16q.03.84.86.77l3.37-.27a.69.69 0 0 1 .75.69Zm23.78 4.6a7.84 7.84 0 0 0-7.84-7.84 7.84 7.84 0 0 0-7.84 7.84 7.84 7.84 0 0 0 7.84 7.84 7.84 7.84 0 0 0 7.84-7.84Zm2.95-6.8.02 13.66a.99.99 0 0 0 .99.99l4.1-.01a8.39 7.73-.1 0 0 8.38-7.74v-.18a8.39 7.73-.1 0 0-8.4-7.72l-4.1.01a.99.99 0 0 0-.99.99Zm19.49 12.2a.47.47 0 0 1-.47-.47v-3.31a.47.47 0 0 1 .47-.47h4.29a.47.47 0 0 0 .46-.37l.29-1.31a.47.47 0 0 0-.46-.57h-4.58a.47.47 0 0 1-.47-.47v-3.37a.47.47 0 0 1 .5-.47l7.16.39a.47.47 0 0 0 .5-.43l.12-1.62a.47.47 0 0 0-.46-.5l-10.1-.08a.47.47 0 0 0-.47.47v14.3a.47.47 0 0 0 .45.47l10.06.37a.47.47 0 0 0 .49-.47v-1.62a.47.47 0 0 0-.47-.47h-7.31Zm18.2-.43c-2.14 1.19-4.39.47-6.44-1.06a.58.58 0 0 0-.9.27l-.32.93q-.29.83.45 1.3 4.92 3.13 8.93.17a3.943 3.943 0 0 0 1.08-5.16c-1.14-1.98-4.88-3.04-7.08-3.88a1.54 1.54 0 0 1 .19-2.93q2.82-.7 5.44.55.8.39.89-.5l.11-1.14q.06-.59-.5-.78c-2.93-.99-7.5-1.27-9.09 1.92-2.07 4.12 4.64 6.16 7.02 7.07a1.79 1.79 0 0 1 .22 3.24Zm8.58-5.84v-6.23q0-.5-.5-.5h-1.23q-.51 0-.51.51-.02 6.82-.01 13.65.01.8.32 1.11.5.51 1.53.07.4-.17.4-.61v-5.27q0-3.16 1.99-.7c1.35 1.67 5.84 7.82 8.16 6.57q.47-.26.1-.66l-6.55-6.91q-.4-.42 0-.85l5.88-6.39a.39.39 0 0 0-.14-.62q-1.74-.73-3.04.76-2.74 3.15-5.7 6.34a.4.4 0 0 1-.7-.27Zm13.92 8.49q.25.12.39-.11.68-1.06-.01-2.17-.3-.5-.82-.23-.79.4-.74 1.29.03.49.39.75.3.23.79.47Zm-78.02 10.05q-.47-3.37 2.62-3.4a.59.59 0 0 0 .16-1.16c-2.98-.91-4.31 1.17-4.37 3.81q-.01.5-.49.64l-1.62.46a.43.43 0 0 0 .03.84l1.59.35q.43.09.43.52v7.86q0 .57.57.56h.62q.6 0 .59-.6l-.11-7.92q0-.35.35-.41l1.8-.27a.53.52 57.5 0 0 .21-.96q-1.02-.69-2.09-.17-.25.13-.29-.15Zm26.45 1.09c-9.36-6.32-8.59 15.15.15 8.32q.49-.38.74.19.27.62.86.95.68.37.67-.4l-.07-13.95q0-.72-.72-.72h-.48q-.5 0-.5.5v4.77q0 .78-.65.34Zm-21.619-3.329a1.07.89 114.8 0 0 1.257-.598 1.07.89 114.8 0 0-.36-1.344 1.07.89 114.8 0 0-1.256.598 1.07.89 114.8 0 0 .36 1.344Zm-10.534-.626a1.03.86 18.4 0 0-.706-1.141 1.03.86 18.4 0 0-1.248.49 1.03.86 18.4 0 0 .706 1.142 1.03.86 18.4 0 0 1.248-.49ZM90.6 76.73c-11.88 2.85-9.38-14 .01-10.32a.5.49-86.7 0 0 .66-.59c-.99-3.67-12.27-.43-10.35 7.46 1.28 5.27 4.84 5.27 9.38 5.16q.85-.02.94-1.17a.52.52 0 0 0-.64-.54Zm76.3-1.26q-.85-5.03-.1-10.07a.57.56 4.4 0 0-.56-.65h-.94q-.55 0-.55.55c0 3.29-.7 9.07 1.12 11.49 2.12 2.82 8.62 2.38 9.35-1.81q.69-3.99-.09-9.67-.05-.36-.4-.49-1.24-.45-1.24.67 0 4.6.02 9.29a1.34 1.33-23.1 0 1-.38.93q-2.64 2.74-5.8.44a1.03 1.03 0 0 1-.43-.68Zm-52.23-5.88 1.93-.29q.16-.03.16-.19-.02-.25.02-.51.04-.35-.31-.35h-1.66a.55.55 0 0 1-.53-.69l.21-.8a.87.87 0 0 0-1.22-1q-.94.46-.52 1.47a.72.71-19.2 0 1-.47.96q-1.75.49-3.43-.1-.57-.19-1 .22l-1.21 1.16a.45.45 0 0 1-.76-.28q-.1-1.02-1.09-.95-.42.04-.42.46l.18 9.3q.01.5.51.5h.69q.5 0 .5-.5v-6.02a1.42 1.38-25.1 0 1 .35-.92q2.27-2.59 5.61-1.53.49.15.5.67l.12 7.41q.02.75.76.79l2.93.15a.56.56 0 0 0 .16-1.1l-1.8-.43q-.51-.12-.52-.64l-.11-6.29q-.01-.44.42-.5Zm-18.69 4.16h5.47q.55 0 .53-.55c-.15-5.83-6.81-7.29-8.54-1.97-1.6 4.95 2.39 8.88 7.21 7.13q.34-.13.49-.34.2-.29.1-.74a.35.34-18 0 0-.48-.24q-3.57 1.62-5.69-1.61-1.1-1.68.91-1.68Zm36.752-4.992a.7.7 0 0 0-.701-.698h-.34a.7.7 0 0 0-.699.701l.016 9.06a.7.7 0 0 0 .701.7l.34-.001a.7.7 0 0 0 .699-.701l-.016-9.06Zm4.788 4.992h5.92q.5 0 .65-.48c1.74-5.77-7.72-7.53-8.6-.9-.66 4.96 3.59 7.59 8.28 5.69a.44.42 69.6 0 0 .24-.55q-.21-.6-.71-.42-4.99 1.79-6.17-2.84-.13-.5.39-.5Zm42.68 3.81-1.01-.38a.64.64 0 0 0-.45 1.2q3.22 1.22 5.52-1.31a2.24 2.24 0 0 0-.52-3.43l-3.21-1.91a1.32 1.32 0 0 1 .73-2.46l2.66.13q.33.01.34-.32.02-.28-.11-.51-.21-.37-.83-.52-2.87-.7-4.39 1.09c-2.46 2.89 2 4.46 3.69 5.56a1.35 1.34-38.4 0 1-.28 2.39l-1.3.47q-.42.16-.84 0Zm8.38-2.75a.74.74 0 0 1 .67-1.06h5.52q.62 0 .7-.62c.88-7.66-9.95-6.19-8.51 1.32q.91 4.75 6.86 4.15 1.06-.11 1.46-.97a.4.4 0 0 0-.5-.55q-4.31 1.63-6.2-2.27Zm11.16-5.53q-.22-.98-1.09-1.27-.54-.18-.53.39l.19 9.51a.6.6 0 0 0 .6.59h.34q.75 0 .75-.75v-6.01q0-.7.61-1.03l2.72-1.49a.66.66 0 0 0-.43-1.22q-1.47.26-2.45 1.45-.53.64-.71-.17Zm-78.92-.575a.43.43 0 0 0-.438-.422l-.8.016a.43.43 0 0 0-.421.438l.179 9.338a.43.43 0 0 0 .438.422l.8-.016a.43.43 0 0 0 .421-.438l-.179-9.338ZM77.76 123.5H83a.71.7-6.1 0 1 .69.55q.43 1.96 1.91 3.32a.73.73 0 0 0 1.17-.83l-5.07-11.73a1.41 1.41 0 0 0-2.59-.01l-5.04 11.54a.87.87 0 0 0 .85 1.22q.23-.01.46-.12.33-.15.54-.62.64-1.42 1.19-2.87.17-.45.65-.45Zm18.68-1.08c-.13 3.96-5.12 5.06-5.71 1.39q-.73-4.54-.32-9.13.06-.68-.62-.68h-.53q-.52 0-.51.52c.01 2.91-.56 8.09.52 10.5 2.02 4.52 8.9 2.62 8.85-2.59l-.06-7.98q-.01-.48-.49-.46-.16.01-.35.01a.68.68 0 0 0-.71.69q.05 3.9-.07 7.73Zm8.09-6.16a.86.86 0 0 1 1.09-.82q.62.18 1.29.04a.75.75 0 0 0-.16-1.48l-6.74.01a.59.59 0 0 0-.15 1.16l2.06.54a1.15 1.13-82.8 0 1 .85 1.11l-.06 10.03q-.01.65.64.65h.34q.7 0 .7-.69l.14-10.55Zm18.48 4.483a7.19 6.73.1 0 0-7.178-6.743 7.19 6.73.1 0 0-7.202 6.718 7.19 6.73.1 0 0 7.178 6.742 7.19 6.73.1 0 0 7.202-6.717Zm9.23 5.287c-10.37.28-5.33-16.49 4.43-8.51a.51.5 28.2 0 0 .8-.24q.04-.13.12-.23.28-.35-.04-.66-4.54-4.33-9.74-1.32c-8.45 4.89.57 17.83 10.06 9.8a.51.5 27 0 0-.29-.89c-1.99-.14-3.18 1.99-5.34 2.05Zm11.26-2.51 4.67-.16q.48-.02.71.41c.59 1.13 1.32 4.2 3.16 3.63q.52-.17.3-.67l-5.2-12a1.37 1.37 0 0 0-2.51 0l-5.23 11.99q-.18.43.22.65 1.24.69 1.84-.68.72-1.64 1.26-2.68.24-.47.78-.49Zm10.77-9.07-.04 12.6a.46.46 0 0 0 .46.46l3.93.02a7.11 6.58.2 0 0 7.13-6.56v-.36a7.11 6.58.2 0 0-7.09-6.6l-3.93-.02a.46.46 0 0 0-.46.46ZM64.3 142.3c-5.95 4.92-13.56-2.6-7.7-7.49q3.51-2.93 8.19.6a.6.6 0 0 0 .97-.48q0-.45-.53-.9c-7.83-6.53-17.53 4.34-9.47 10.05q4.9 3.47 10.34-1.22a.43.42 39.5 0 0-.07-.69q-.92-.54-1.73.13Zm6.12 1.12-.05-3.77a.34.34 0 0 1 .38-.34q3.09.37 5.01.17.69-.08.41-1-.14-.48-.64-.48h-4.41q-.58 0-.61-.57l-.18-3.52a.37.37 0 0 1 .37-.39q2.37-.06 4.74-.01c.51 0 .92-.33 1.07-.78a.56.56 0 0 0-.54-.73h-6.75a.53.53 0 0 0-.53.53l.08 12.12q.01.69.69.71l6.53.17a.57.57 0 0 0 .5-.88q-.6-.95-1.98-.64-1.41.32-3.73-.16-.35-.07-.36-.43Zm14.56-2.91c1.76-.82 3.09-1.91 3.1-4.02.04-4.98-5.08-4.59-8.56-4.48a.87.87 0 0 0-.84.88l.1 11.71q0 .39.34.57l.6.32q.77.42.77-.46l-.01-10.72q-.01-.56.54-.7 3.2-.87 5.1 1.49a1.56 1.54 38.4 0 1 .2 1.63q-1.14 2.45-3.81 2.24-1.61-.12-.64 1.18 1.7 2.27 3.79 4.92.7.9 1.74.29.55-.32.15-.82l-2.72-3.37q-.34-.42.15-.66Zm8.77-6.09a.88.88 0 0 1 .83-.88l1.7-.1a.71.71 0 0 0-.04-1.41l-6.87-.04a.68.68 0 0 0-.36 1.26q.97.6 1.64-.17a.85.85 0 0 1 1.49.63q-.49 5.67-.39 10.5.01.66.31.99.47.53 1.2.26a.77.76-10.7 0 0 .49-.71v-10.33Zm6.24-2.13a.27.27 0 0 0-.27-.27h-1.24a.27.27 0 0 0-.27.27v12.88a.27.27 0 0 0 .27.27h1.24a.27.27 0 0 0 .27-.27v-12.88Zm4.78 5.26-.07-3.42q-.02-.63.61-.63h3.94a.82.7-40.2 0 0 .25-1.5q-3.11-.02-6.22.03a.57.57 0 0 0-.56.58l.11 12.15a.57.57 0 0 0 .42.54l.91.23q.59.16.59-.45v-4.04a1.58 1.58 0 0 1 1.92-1.54q2.02.46 3.36-.68a.25.25 0 0 0-.08-.43q-2.23-.7-4.59-.34-.57.09-.59-.5Zm9.197-5.175a.37.37 0 0 0-.372-.368l-1.04.006a.37.37 0 0 0-.368.372l.066 12.7a.37.37 0 0 0 .372.368l1.04-.006a.37.37 0 0 0 .368-.372l-.066-12.7Zm4.873 7.125h4.99q.61 0 .43-.59l-.11-.35q-.18-.56-.76-.56h-4.33q-.62 0-.61-.62l.07-3.65a.56.56 0 0 1 .7-.52q2.47.65 4.94.04a.63.63 0 0 0-.15-1.25h-6.76a.56.55-.5 0 0-.56.56l.09 12.33q0 .36.36.38l6.78.3a.7.69 50.5 0 0 .13-1.38q-2.5-.38-5.02-.14a.53.52-3.5 0 1-.58-.51l-.02-3.63q0-.41.41-.41Zm7.81-6.73.14 12.06a.73.73 0 0 0 .74.72l3.43-.04a7.38 6.55-.7 0 0 7.3-6.64v-.42a7.38 6.55-.7 0 0-7.46-6.46l-3.43.04a.73.73 0 0 0-.72.74Zm26.77 9.67c-1.29 2.73-5.37 1.52-5.4-1.19q-.05-4.32-.01-8.67.01-.58-.57-.58h-.66q-.56 0-.56.56c.03 2.74-.57 8.53.64 10.86 1.49 2.88 6.37 2.63 7.87.09 1.34-2.27.8-8 .74-10.87q-.01-.64-.66-.64-.15 0-.3-.01-.59-.03-.62.56c-.15 2.36.41 8.02-.47 9.89Zm9.84 1.18c-1.97 1.06-3.8-.43-4.13-2.27a.75.75 0 0 0-1.32-.34q-.66.83-.04 2c2.28 4.3 9.09 2.68 8.09-2.58a2.97 2.97 0 0 0-1.92-2.24l-3.47-1.25a1.69 1.69 0 0 1 .18-3.24q2.56-.6 3.86 1.83a.47.46-38 0 0 .76.09q.34-.38.34-.97c-.02-3.42-7.5-3.84-7.8.97-.24 3.96 4.42 2.83 6.08 4.98a2.03 2.03 0 0 1-.63 3.02Zm6.79-4.12h4.96a.56.56 0 0 0 .47-.86q-.56-.89-2.23-.6-.77.13-2.85-.09-.54-.06-.59-.61l-.27-3.21a.59.58-2.7 0 1 .58-.63l5.04-.01a.72.71 45.1 0 0 0-1.43l-6.64-.09q-.77-.01-.77.76v12.12a.6.59.5 0 0 .59.59l6.64.09q.52 0 .52-.51v-.39q0-.63-.62-.63h-4.52q-.59 0-.61-.58l-.12-3.48q-.02-.44.42-.44Zm9.92-5.88q2.94-.78 5.13 1.02a2.29 2.29 0 0 1-1.08 4.03l-2.84.47q-.59.1-.26.6 1.84 2.75 4 5.25.31.36.63.47.65.2 1.06-.18a.65.65 0 0 0 .07-.87l-2.51-3.32q-.42-.55.23-.77c4.44-1.55 3.74-7.33-.98-8.24q-1.3-.25-5.21-.02-.41.02-.4.43l.07 12.19a.84.84 0 0 0 .92.83q.2-.02.39-.01.59.01.59-.58l-.09-10.94q0-.29.28-.36Z"/><path fill="#0b7dbc" d="M48.99 48.71c.26-3.05-3.58-9.99-5.02-12.86l12.89-.22a.99.99 0 0 1 .93.61l19.62 46.63q.24.58-.38.58l-12.07.15q-.39.01-.55-.35-7.51-16.91-14.58-33.94-.13-.31-.32-.43-.25-.17-.52-.17Z"/><path fill="#6b9f4a" d="M43.97 35.85c1.44 2.87 5.28 9.81 5.02 12.86L39.46 71.4l-10.85-.09-1-2.26a1.09 1.08 44.7 0 1-.01-.88l13.2-31.75q.21-.5.74-.61 1.19-.26 2.43.04Z"/><path d="M89.51 54.25q-2.52-.12-5.11.12-.52.05-.77.51l-1.88 3.36a.94.93-18.9 0 1-1.68-.82l6.09-14.18a1.53 1.53 0 0 1 2.81 0l6.21 14.32q.22.5-.32.63-1.06.27-1.83-.28c-1.77-1.25-.23-3.49-3.52-3.66Zm-4.33-2.83a.32.32 0 0 0 .29.45l4.12.01a.32.32 0 0 0 .3-.44l-2.04-5.08a.32.32 0 0 0-.59-.01l-2.08 5.07ZM104.79 55.58c3.65-1.45 2.45-8.75 2.47-12.02q0-.4.31-.64.94-.71 1.8-.09.33.23.34.64c.17 5.13 1.38 15.56-7.24 14.72-6.7-.65-5.89-8.98-5.65-14.82q.03-.62.65-.62h1.27q.53 0 .53.53c-.05 4.22-1.4 15.05 5.52 12.3ZM117 45.06l-3.37.27q-.83.07-.86-.77l-.03-1.16q-.01-.62.61-.62l10.97-.09q.42 0 .44.42c.08 2.48-2.12 2.22-3.86 1.86a.55.54-84.4 0 0-.65.54V57.5q0 .75-.75.75h-1q-.75 0-.75-.75V45.75a.69.69 0 0 0-.75-.69ZM141.53 50.35a7.84 7.84 0 0 1-7.84 7.84 7.84 7.84 0 0 1-7.84-7.84 7.84 7.84 0 0 1 7.84-7.84 7.84 7.84 0 0 1 7.84 7.84Zm-7.898 5.41a5.43 5.15 90.4 0 0 5.188-5.394 5.43 5.15 90.4 0 0-5.112-5.466 5.43 5.15 90.4 0 0-5.188 5.394 5.43 5.15 90.4 0 0 5.112 5.466ZM144.48 43.55a.99.99 0 0 1 .99-.99l4.1-.01a8.39 7.73-.1 0 1 8.4 7.72v.18a8.39 7.73-.1 0 1-8.38 7.74l-4.1.01a.99.99 0 0 1-.99-.99l-.02-13.66Zm2.73 2.22.02 9.2a.54.54 0 0 0 .54.54l2.62-.01a4.88 4.79-.1 0 0 4.87-4.8V50a4.88 4.79-.1 0 0-4.89-4.78l-2.62.01a.54.54 0 0 0-.54.54ZM163.97 55.75h7.31a.47.47 0 0 1 .47.47v1.62a.47.47 0 0 1-.49.47l-10.06-.37a.47.47 0 0 1-.45-.47v-14.3a.47.47 0 0 1 .47-.47l10.1.08a.47.47 0 0 1 .46.5l-.12 1.62a.47.47 0 0 1-.5.43l-7.16-.39a.47.47 0 0 0-.5.47v3.37a.47.47 0 0 0 .47.47h4.58a.47.47 0 0 1 .46.57l-.29 1.31a.47.47 0 0 1-.46.37h-4.29a.47.47 0 0 0-.47.47v3.31a.47.47 0 0 0 .47.47ZM175.73 54.26c2.05 1.53 4.3 2.25 6.44 1.06a1.79 1.79 0 0 0-.22-3.24c-2.38-.91-9.09-2.95-7.02-7.07 1.59-3.19 6.16-2.91 9.09-1.92q.56.19.5.78l-.11 1.14q-.09.89-.89.5-2.62-1.25-5.44-.55a1.54 1.54 0 0 0-.19 2.93c2.2.84 5.94 1.9 7.08 3.88.99 1.72.58 3.93-1.08 5.16q-4.01 2.96-8.93-.17-.74-.47-.45-1.3l.32-.93a.58.58 0 0 1 .9-.27ZM190.75 49.48a.4.4 0 0 0 .7.27q2.96-3.19 5.7-6.34 1.3-1.49 3.04-.76a.39.39 0 0 1 .14.62l-5.88 6.39q-.4.43 0 .85l6.55 6.91q.37.4-.1.66c-2.32 1.25-6.81-4.9-8.16-6.57q-1.99-2.46-1.99.7v5.27q0 .44-.4.61-1.03.44-1.53-.07-.31-.31-.32-1.11-.01-6.83.01-13.65 0-.51.51-.51h1.23q.5 0 .5.5v6.23Z"/><ellipse fill="#fff" rx="5.43" ry="5.15" transform="rotate(90.4 41.845 91.535)"/><path fill="#fff" d="M147.21 45.77a.54.54 0 0 1 .54-.54l2.62-.01a4.88 4.79-.1 0 1 4.89 4.78v.7a4.88 4.79-.1 0 1-4.87 4.8l-2.62.01a.54.54 0 0 1-.54-.54l-.02-9.2ZM85.18 51.42l2.08-5.07a.32.32 0 0 1 .59.01l2.04 5.08a.32.32 0 0 1-.3.44l-4.12-.01a.32.32 0 0 1-.29-.45Z"/><path d="M204.67 57.97q-.49-.24-.79-.47-.36-.26-.39-.75-.05-.89.74-1.29.52-.27.82.23.69 1.11.01 2.17-.14.23-.39.11ZM126.94 68.17q1.07-.52 2.09.17a.53.52 57.5 0 1-.21.96l-1.8.27q-.35.06-.35.41l.11 7.92q.01.6-.59.6h-.62q-.57.01-.57-.56v-7.86q0-.43-.43-.52l-1.59-.35a.43.43 0 0 1-.03-.84l1.62-.46q.48-.14.49-.64c.06-2.64 1.39-4.72 4.37-3.81a.59.59 0 0 1-.16 1.16q-3.09.03-2.62 3.4.04.28.29.15ZM153.75 68.77V64q0-.5.5-.5h.48q.72 0 .72.72l.07 13.95q.01.77-.67.4-.59-.33-.86-.95-.25-.57-.74-.19c-8.74 6.83-9.51-14.64-.15-8.32q.65.44.65-.34Zm-2.792 8.49a3.91 2.73 89 0 0 2.662-3.958 3.91 2.73 89 0 0-2.798-3.861 3.91 2.73 89 0 0-2.662 3.957 3.91 2.73 89 0 0 2.798 3.861Z"/><ellipse rx="1.07" ry=".89" transform="rotate(114.8 45.241 74.591)"/><ellipse rx="1.03" ry=".86" transform="rotate(18.4 -140.151 402.774)"/><path d="M90.61 66.41c-9.39-3.68-11.89 13.17-.01 10.32a.52.52 0 0 1 .64.54q-.09 1.15-.94 1.17c-4.54.11-8.1.11-9.38-5.16-1.92-7.89 9.36-11.13 10.35-7.46a.5.49-86.7 0 1-.66.59ZM167.33 76.15q3.16 2.3 5.8-.44a1.34 1.33-23.1 0 0 .38-.93q-.02-4.69-.02-9.29 0-1.12 1.24-.67.35.13.4.49.78 5.68.09 9.67c-.73 4.19-7.23 4.63-9.35 1.81-1.82-2.42-1.12-8.2-1.12-11.49q0-.55.55-.55h.94a.57.56 4.4 0 1 .56.65q-.75 5.04.1 10.07a1.03 1.03 0 0 0 .43.68ZM114.25 70.09l.11 6.29q.01.52.52.64l1.8.43a.56.56 0 0 1-.16 1.1l-2.93-.15q-.74-.04-.76-.79l-.12-7.41q-.01-.52-.5-.67-3.34-1.06-5.61 1.53a1.42 1.38-25.1 0 0-.35.92V78q0 .5-.5.5h-.69q-.5 0-.51-.5l-.18-9.3q0-.42.42-.46.99-.07 1.09.95a.45.45 0 0 0 .76.28l1.21-1.16q.43-.41 1-.22 1.68.59 3.43.1a.72.71-19.2 0 0 .47-.96q-.42-1.01.52-1.47a.87.87 0 0 1 1.22 1l-.21.8a.55.55 0 0 0 .53.69h1.66q.35 0 .31.35-.04.26-.02.51 0 .16-.16.19l-1.93.29q-.43.06-.42.5ZM95.98 73.75q-2.01 0-.91 1.68 2.12 3.23 5.69 1.61a.35.34-18 0 1 .48.24q.1.45-.1.74-.15.21-.49.34c-4.82 1.75-8.81-2.18-7.21-7.13 1.73-5.32 8.39-3.86 8.54 1.97q.02.55-.53.55h-5.47Zm-.18-1.17 3.79-.15a.69.69 0 0 0 .66-.71v-.11a2.44 2.4-2.3 0 0-2.53-2.3l-.3.01a2.44 2.4-2.3 0 0-2.35 2.49l.01.11a.69.69 0 0 0 .72.66Z"/><rect width="1.74" height="10.46" x="-.87" y="-5.23" rx=".7" transform="rotate(-.1 42058.001 -75519.28)"/><path d="M137.13 74.25q1.18 4.63 6.17 2.84.5-.18.71.42a.44.42 69.6 0 1-.24.55c-4.69 1.9-8.94-.73-8.28-5.69.88-6.63 10.34-4.87 8.6.9q-.15.48-.65.48h-5.92q-.52 0-.39.5Zm.62-1.73 4.56-.04a.22.22 0 0 0 .22-.22v-.1a2.9 2.33 89.6 0 0-2.35-2.88h-.34a2.9 2.33 89.6 0 0-2.31 2.92v.1a.22.22 0 0 0 .22.22ZM181.04 77.56l1.3-.47a1.35 1.34-38.4 0 0 .28-2.39c-1.69-1.1-6.15-2.67-3.69-5.56q1.52-1.79 4.39-1.09.62.15.83.52.13.23.11.51-.01.33-.34.32l-2.66-.13a1.32 1.32 0 0 0-.73 2.46l3.21 1.91a2.24 2.24 0 0 1 .52 3.43q-2.3 2.53-5.52 1.31a.64.64 0 0 1 .45-1.2l1.01.38q.42.16.84 0ZM188.58 74.81q1.89 3.9 6.2 2.27a.4.4 0 0 1 .5.55q-.4.86-1.46.97-5.95.6-6.86-4.15c-1.44-7.51 9.39-8.98 8.51-1.32q-.08.62-.7.62h-5.52a.74.74 0 0 0-.67 1.06Zm.56-2.3h4.3a.51.51 0 0 0 .51-.51v-.15a2.54 2.53 89.9 0 0-2.53-2.54h-.26a2.54 2.53 89.9 0 0-2.53 2.54V72a.51.51 0 0 0 .51.51ZM200.45 69.45q.98-1.19 2.45-1.45a.66.66 0 0 1 .43 1.22l-2.72 1.49q-.61.33-.61 1.03v6.01q0 .75-.75.75h-.34a.6.6 0 0 1-.6-.59l-.19-9.51q-.01-.57.53-.39.87.29 1.09 1.27.18.81.71.17Z"/><rect width="1.66" height="10.2" x="-.83" y="-5.1" rx=".43" transform="rotate(-1.1 3882.593 -6217.729)"/><path fill="#fff" d="M95.8 72.58a.69.69 0 0 1-.72-.66l-.01-.11a2.44 2.4-2.3 0 1 2.35-2.49l.3-.01a2.44 2.4-2.3 0 1 2.53 2.3v.11a.69.69 0 0 1-.66.71l-3.79.15ZM137.75 72.52a.22.22 0 0 1-.22-.22v-.1a2.9 2.33 89.6 0 1 2.31-2.92h.34a2.9 2.33 89.6 0 1 2.35 2.88v.1a.22.22 0 0 1-.22.22l-4.56.04ZM189.14 72.51a.51.51 0 0 1-.51-.51v-.15a2.54 2.53 89.9 0 1 2.53-2.54h.26a2.54 2.53 89.9 0 1 2.53 2.54V72a.51.51 0 0 1-.51.51h-4.3Z"/><ellipse fill="#fff" rx="3.91" ry="2.73" transform="rotate(89 38.124 113.448)"/><path fill="#29aca0" d="m39.46 71.4 18.05-.09a.35.35 0 0 1 .19.64q-8.02 5.13-16.07 9.88c-2.49 1.46-5.59 3.05-7.55-.21q-2.89-4.8-5.47-10.31l10.85.09Z"/><path d="M77.11 123.95q-.55 1.45-1.19 2.87-.21.47-.54.62-.23.11-.46.12a.87.87 0 0 1-.85-1.22l5.04-11.54a1.41 1.41 0 0 1 2.59.01l5.07 11.73a.73.73 0 0 1-1.17.83q-1.48-1.36-1.91-3.32a.71.7-6.1 0 0-.69-.55h-5.24q-.48 0-.65.45Zm1.11-2.58a.42.42 0 0 0 .38.6l3.63.05a.42.42 0 0 0 .39-.58l-1.76-4.09a.42.42 0 0 0-.76-.01l-1.88 4.03ZM90.73 123.81c.59 3.67 5.58 2.57 5.71-1.39q.12-3.83.07-7.73a.68.68 0 0 1 .71-.69q.19 0 .35-.01.48-.02.49.46l.06 7.98c.05 5.21-6.83 7.11-8.85 2.59-1.08-2.41-.51-7.59-.52-10.5q-.01-.52.51-.52h.53q.68 0 .62.68-.41 4.59.32 9.13ZM104.53 116.26l-.14 10.55q0 .69-.7.69h-.34q-.65 0-.64-.65l.06-10.03a1.15 1.13-82.8 0 0-.85-1.11l-2.06-.54a.59.59 0 0 1 .15-1.16l6.74-.01a.75.75 0 0 1 .16 1.48q-.67.14-1.29-.04a.86.86 0 0 0-1.09.82ZM123.01 120.743a7.19 6.73.1 0 1-7.202 6.717 7.19 6.73.1 0 1-7.178-6.742 7.19 6.73.1 0 1 7.202-6.718 7.19 6.73.1 0 1 7.178 6.743Zm-1.9-.003a5.31 5.31 0 0 0-5.31-5.31 5.31 5.31 0 0 0-5.31 5.31 5.31 5.31 0 0 0 5.31 5.31 5.31 5.31 0 0 0 5.31-5.31ZM132.24 126.03c2.16-.06 3.35-2.19 5.34-2.05a.51.5 27 0 1 .29.89c-9.49 8.03-18.51-4.91-10.06-9.8q5.2-3.01 9.74 1.32.32.31.04.66-.08.1-.12.23a.51.5 28.2 0 1-.8.24c-9.76-7.98-14.8 8.79-4.43 8.51ZM142.72 124.01q-.54 1.04-1.26 2.68-.6 1.37-1.84.68-.4-.22-.22-.65l5.23-11.99a1.37 1.37 0 0 1 2.51 0l5.2 12q.22.5-.3.67c-1.84.57-2.57-2.5-3.16-3.63q-.23-.43-.71-.41l-4.67.16q-.54.02-.78.49Zm1.06-2.46a.35.35 0 0 0 .33.48l3.77-.07a.35.35 0 0 0 .31-.49l-1.96-4.33a.35.35 0 0 0-.64.01l-1.81 4.4ZM154.27 114.45a.46.46 0 0 1 .46-.46l3.93.02a7.11 6.58.2 0 1 7.09 6.6v.36a7.11 6.58.2 0 1-7.13 6.56l-3.93-.02a.46.46 0 0 1-.46-.46l.04-12.6Zm1.71 1.69v9.24a.64.64 0 0 0 .64.64h1.76a5.62 5.13 0 0 0 5.62-5.13v-.26a5.62 5.13 0 0 0-5.62-5.13h-1.76a.64.64 0 0 0-.64.64Z"/><circle cx="115.8" cy="120.74" r="5.31" fill="#fff"/><path fill="#fff" d="M155.98 116.14a.64.64 0 0 1 .64-.64h1.76a5.62 5.13 0 0 1 5.62 5.13v.26a5.62 5.13 0 0 1-5.62 5.13h-1.76a.64.64 0 0 1-.64-.64v-9.24ZM78.22 121.37l1.88-4.03a.42.42 0 0 1 .76.01l1.76 4.09a.42.42 0 0 1-.39.58l-3.63-.05a.42.42 0 0 1-.38-.6ZM143.78 121.55l1.81-4.4a.35.35 0 0 1 .64-.01l1.96 4.33a.35.35 0 0 1-.31.49l-3.77.07a.35.35 0 0 1-.33-.48Z"/><path d="M56.6 134.81c-5.86 4.89 1.75 12.41 7.7 7.49q.81-.67 1.73-.13a.43.42 39.5 0 1 .07.69q-5.44 4.69-10.34 1.22c-8.06-5.71 1.64-16.58 9.47-10.05q.53.45.53.9a.6.6 0 0 1-.97.48q-4.68-3.53-8.19-.6ZM70.78 143.85q2.32.48 3.73.16 1.38-.31 1.98.64a.57.57 0 0 1-.5.88l-6.53-.17q-.68-.02-.69-.71l-.08-12.12a.53.53 0 0 1 .53-.53h6.75a.56.56 0 0 1 .54.73c-.15.45-.56.78-1.07.78q-2.37-.05-4.74.01a.37.37 0 0 0-.37.39l.18 3.52q.03.57.61.57h4.41q.5 0 .64.48.28.92-.41 1-1.92.2-5.01-.17a.34.34 0 0 0-.38.34l.05 3.77q.01.36.36.43ZM84.83 141.17l2.72 3.37q.4.5-.15.82-1.04.61-1.74-.29-2.09-2.65-3.79-4.92-.97-1.3.64-1.18 2.67.21 3.81-2.24a1.56 1.54 38.4 0 0-.2-1.63q-1.9-2.36-5.1-1.49-.55.14-.54.7l.01 10.72q0 .88-.77.46l-.6-.32q-.34-.18-.34-.57l-.1-11.71a.87.87 0 0 1 .84-.88c3.48-.11 8.6-.5 8.56 4.48-.01 2.11-1.34 3.2-3.1 4.02q-.49.24-.15.66ZM93.75 134.42v10.33a.77.76-10.7 0 1-.49.71q-.73.27-1.2-.26-.3-.33-.31-.99-.1-4.83.39-10.5a.85.85 0 0 0-1.49-.63q-.67.77-1.64.17a.68.68 0 0 1 .36-1.26l6.87.04a.71.71 0 0 1 .04 1.41l-1.7.1a.88.88 0 0 0-.83.88Z"/><rect width="1.78" height="13.42" x="98.21" y="132.02" rx=".27"/><path d="M105.36 138.05q2.36-.36 4.59.34a.25.25 0 0 1 .08.43q-1.34 1.14-3.36.68a1.58 1.58 0 0 0-1.92 1.54v4.04q0 .61-.59.45l-.91-.23a.57.57 0 0 1-.42-.54l-.11-12.15a.57.57 0 0 1 .56-.58q3.11-.05 6.22-.03a.82.7-40.2 0 1-.25 1.5h-3.94q-.63 0-.61.63l.07 3.42q.02.59.59.5Z"/><rect width="1.78" height="13.44" x="-.89" y="-6.72" rx=".37" transform="rotate(-.3 26551.973 -21533.004)"/><path d="m118.43 139.91.02 3.63a.53.52-3.5 0 0 .58.51q2.52-.24 5.02.14a.7.69 50.5 0 1-.13 1.38l-6.78-.3q-.36-.02-.36-.38l-.09-12.33a.56.55-.5 0 1 .56-.56h6.76a.63.63 0 0 1 .15 1.25q-2.47.61-4.94-.04a.56.56 0 0 0-.7.52l-.07 3.65q-.01.62.61.62h4.33q.58 0 .76.56l.11.35q.18.59-.43.59h-4.99q-.41 0-.41.41ZM126.65 132.77a.73.73 0 0 1 .72-.74l3.43-.04a7.38 6.55-.7 0 1 7.46 6.46v.42a7.38 6.55-.7 0 1-7.3 6.64l-3.43.04a.73.73 0 0 1-.74-.72l-.14-12.06Zm1.8 1.46-.11 9a.79.79 0 0 0 .78.8l1.66.02a5.69 5.18.7 0 0 5.75-5.11v-.22a5.69 5.18.7 0 0-5.63-5.25l-1.66-.02a.79.79 0 0 0-.79.78ZM148.02 141.25c.03 2.71 4.11 3.92 5.4 1.19.88-1.87.32-7.53.47-9.89q.03-.59.62-.56.15.01.3.01.65 0 .66.64c.06 2.87.6 8.6-.74 10.87-1.5 2.54-6.38 2.79-7.87-.09-1.21-2.33-.61-8.12-.64-10.86q0-.56.56-.56h.66q.58 0 .57.58-.04 4.35.01 8.67ZM159.13 141.35c.33 1.84 2.16 3.33 4.13 2.27a2.03 2.03 0 0 0 .63-3.02c-1.66-2.15-6.32-1.02-6.08-4.98.3-4.81 7.78-4.39 7.8-.97q0 .59-.34.97a.47.46-38 0 1-.76-.09q-1.3-2.43-3.86-1.83a1.69 1.69 0 0 0-.18 3.24l3.47 1.25a2.97 2.97 0 0 1 1.92 2.24c1 5.26-5.81 6.88-8.09 2.58q-.62-1.17.04-2a.75.75 0 0 1 1.32.34ZM169.63 139.94l.12 3.48q.02.58.61.58h4.52q.62 0 .62.63v.39q0 .51-.52.51l-6.64-.09a.6.59.5 0 1-.59-.59v-12.12q0-.77.77-.76l6.64.09a.72.71 45.1 0 1 0 1.43l-5.04.01a.59.58-2.7 0 0-.58.63l.27 3.21q.05.55.59.61 2.08.22 2.85.09 1.67-.29 2.23.6a.56.56 0 0 1-.47.86h-4.96q-.44 0-.42.44ZM179.69 133.98l.09 10.94q0 .59-.59.58-.19-.01-.39.01a.84.84 0 0 1-.92-.83l-.07-12.19q-.01-.41.4-.43 3.91-.23 5.21.02c4.72.91 5.42 6.69.98 8.24q-.65.22-.23.77l2.51 3.32a.65.65 0 0 1-.07.87q-.41.38-1.06.18-.32-.11-.63-.47-2.16-2.5-4-5.25-.33-.5.26-.6l2.84-.47a2.29 2.29 0 0 0 1.08-4.03q-2.19-1.8-5.13-1.02-.28.07-.28.36Z"/><path fill="#fff" d="M128.45 134.23a.79.79 0 0 1 .79-.78l1.66.02a5.69 5.18.7 0 1 5.63 5.25v.22a5.69 5.18.7 0 1-5.75 5.11l-1.66-.02a.79.79 0 0 1-.78-.8l.11-9Z"/></svg>