<?xml version="1.0" encoding="UTF-8"?>
<svg width="400" height="400" viewBox="0 0 400 400" fill="none" xmlns="http://www.w3.org/2000/svg">
  <!-- Background -->
  <circle cx="200" cy="200" r="200" fill="#E5E7EB"/>
  
  <!-- Suit -->
  <path d="M120 400 L280 400 L240 200 L160 200 Z" fill="#1F2937"/>
  <path d="M180 220 L220 220 L200 180 Z" fill="white"/>
  
  <!-- Head -->
  <circle cx="200" cy="160" r="80" fill="#F3D9B1"/>
  
  <!-- Hair -->
  <path d="M140 120 Q200 80 260 120 L260 160 Q200 140 140 160 Z" fill="#4B5563"/>
  <path d="M140 120 L140 160 Q170 150 200 150 Q230 150 260 160 L260 120 Q200 100 140 120" fill="#4B5563"/>
  
  <!-- Eyes -->
  <circle cx="170" cy="150" r="8" fill="#1F2937"/>
  <circle cx="230" cy="150" r="8" fill="#1F2937"/>
  
  <!-- Eyebrows -->
  <path d="M160 135 Q170 130 180 135" stroke="#4B5563" stroke-width="3"/>
  <path d="M220 135 Q230 130 240 135" stroke="#4B5563" stroke-width="3"/>
  
  <!-- Nose -->
  <path d="M195 155 Q200 165 205 155" stroke="#BE8B60" stroke-width="2"/>
  
  <!-- Mouth -->
  <path d="M180 180 Q200 190 220 180" stroke="#BE8B60" stroke-width="3"/>
  
  <!-- Glasses -->
  <rect x="155" y="142" width="30" height="20" rx="5" stroke="#4B5563" stroke-width="2" fill="none"/>
  <rect x="215" y="142" width="30" height="20" rx="5" stroke="#4B5563" stroke-width="2" fill="none"/>
  <line x1="185" y1="152" x2="215" y2="152" stroke="#4B5563" stroke-width="2"/>
</svg>
