<?xml version="1.0" encoding="UTF-8"?>
<svg width="400" height="400" viewBox="0 0 400 400" fill="none" xmlns="http://www.w3.org/2000/svg">
  <!-- Background -->
  <circle cx="200" cy="200" r="200" fill="#E5E7EB"/>
  
  <!-- Suit -->
  <path d="M120 400 L280 400 L240 200 L160 200 Z" fill="#DB2777"/>
  <path d="M180 220 L220 220 L200 180 Z" fill="white"/>
  
  <!-- Head -->
  <circle cx="200" cy="160" r="80" fill="#F3D9B1"/>
  
  <!-- Hair -->
  <path d="M130 160 Q200 60 270 160 Q200 140 130 160" fill="#A16207"/>
  <path d="M130 160 Q200 180 270 160 Q200 220 130 160" fill="#A16207"/>
  
  <!-- Eyes -->
  <circle cx="170" cy="150" r="8" fill="#1F2937"/>
  <circle cx="230" cy="150" r="8" fill="#1F2937"/>
  
  <!-- Eyebrows -->
  <path d="M160 135 Q170 130 180 135" stroke="#A16207" stroke-width="3"/>
  <path d="M220 135 Q230 130 240 135" stroke="#A16207" stroke-width="3"/>
  
  <!-- Nose -->
  <path d="M195 155 Q200 165 205 155" stroke="#BE8B60" stroke-width="2"/>
  
  <!-- Mouth -->
  <path d="M180 180 Q200 190 220 180" stroke="#BE8B60" stroke-width="3" fill="#BE8B60"/>
  
  <!-- Earrings -->
  <circle cx="130" cy="160" r="5" fill="#FCD34D"/>
  <circle cx="270" cy="160" r="5" fill="#FCD34D"/>
  
  <!-- Marketing Icon -->
  <path d="M170 220 L190 240 L210 220" stroke="#DB2777" stroke-width="3" fill="none"/>
  <circle cx="190" cy="240" r="5" fill="#DB2777"/>
</svg>
