<?xml version="1.0" encoding="UTF-8"?>
<svg width="32" height="32" viewBox="0 0 32 32" fill="none" xmlns="http://www.w3.org/2000/svg">
  <!-- Background circle representing an island -->
  <circle cx="16" cy="16" r="16" fill="#3B82F6"/>
  
  <!-- Whitewashed buildings -->
  <path d="M8 14h4v10H8z" fill="white"/>
  <path d="M14 12h4v12h-4z" fill="white"/>
  <path d="M20 16h4v8h-4z" fill="white"/>
  
  <!-- Blue domes -->
  <path d="M9 14a1 1 0 0 1 2 0v1H9z" fill="#60A5FA"/>
  <path d="M15 12a1 1 0 0 1 2 0v1h-2z" fill="#60A5FA"/>
  <path d="M21 16a1 1 0 0 1 2 0v1h-2z" fill="#60A5FA"/>
  
  <!-- Sun -->
  <circle cx="24" cy="8" r="3" fill="#FBBF24"/>
  
  <!-- Waves -->
  <path d="M4 24c2-1 4-1 6 0s4 1 6 0 4-1 6 0 4 1 6 0" stroke="white" stroke-width="2" fill="none"/>
</svg>
