<?xml version="1.0" encoding="UTF-8"?>
<svg width="800" height="600" viewBox="0 0 800 600" fill="none" xmlns="http://www.w3.org/2000/svg">
  <!-- Browser Window Frame -->
  <rect x="50" y="50" width="700" height="500" rx="8" fill="white" stroke="#10B981" stroke-width="2"/>
  <rect x="50" y="50" width="700" height="40" rx="8" fill="#D1FAE5"/>
  <circle cx="90" cy="70" r="6" fill="#EF4444"/>
  <circle cx="120" cy="70" r="6" fill="#F59E0B"/>
  <circle cx="150" cy="70" r="6" fill="#10B981"/>

  <!-- URL Bar -->
  <rect x="80" y="100" width="640" height="30" rx="4" fill="#D1FAE5"/>
  <text x="100" y="120" font-family="Arial" font-size="12" fill="#059669">https://example.com/seo-friendly-guide</text>

  <!-- Content Area -->
  <!-- Optimized Title -->
  <text x="100" y="180" font-family="Arial" font-size="24" font-weight="bold" fill="#059669">Complete SEO Guide: Best Practices [2024]</text>
  
  <!-- Optimized Meta Description -->
  <rect x="100" y="200" width="500" height="40" rx="4" fill="#D1FAE5"/>
  <text x="110" y="225" font-family="Arial" font-size="12" fill="#059669">Learn SEO best practices with our comprehensive guide. Updated for 2024 with expert tips...</text>

  <!-- Optimized Content Structure -->
  <rect x="100" y="260" width="200" height="20" rx="2" fill="#D1FAE5"/>
  <rect x="100" y="290" width="500" height="10" rx="2" fill="#D1FAE5"/>
  <rect x="100" y="310" width="480" height="10" rx="2" fill="#D1FAE5"/>
  <rect x="100" y="330" width="460" height="10" rx="2" fill="#D1FAE5"/>

  <!-- Optimized Image -->
  <rect x="100" y="360" width="200" height="120" rx="4" fill="#D1FAE5"/>
  <text x="160" y="425" font-family="Arial" font-size="12" fill="#059669">seo-guide-diagram.webp</text>
  <text x="140" y="445" font-family="Arial" font-size="10" fill="#059669">alt="SEO best practices diagram 2024"</text>

  <!-- Proper Header Structure -->
  <rect x="320" y="360" width="300" height="120" rx="4" fill="#D1FAE5"/>
  <text x="340" y="385" font-family="Arial" font-size="14" font-weight="bold" fill="#059669">H1: SEO Best Practices Guide</text>
  <text x="340" y="415" font-family="Arial" font-size="12" font-weight="bold" fill="#059669">H2: Key Optimization Techniques</text>
  <text x="340" y="445" font-family="Arial" font-size="10" font-weight="bold" fill="#059669">H3: On-Page SEO Factors</text>

  <!-- SEO Elements Callouts -->
  <circle cx="200" cy="180" r="5" fill="#059669"/>
  <line x1="200" y1="180" x2="650" y2="180" stroke="#059669" stroke-width="1" stroke-dasharray="2 2"/>
  <text x="660" y="185" font-family="Arial" font-size="12" fill="#059669">Optimized Title</text>

  <circle cx="150" y1="220" r="5" fill="#059669"/>
  <line x1="150" y1="220" x2="650" y2="220" stroke="#059669" stroke-width="1" stroke-dasharray="2 2"/>
  <text x="660" y="225" font-family="Arial" font-size="12" fill="#059669">Optimized Meta</text>

  <!-- Internal Links -->
  <rect x="100" y="500" width="120" height="20" rx="4" fill="#D1FAE5"/>
  <text x="160" y="514" font-family="Arial" font-size="12" fill="#059669" text-anchor="middle">Related Guide</text>
  
  <rect x="240" y="500" width="120" height="20" rx="4" fill="#D1FAE5"/>
  <text x="300" y="514" font-family="Arial" font-size="12" fill="#059669" text-anchor="middle">Case Studies</text>
  
  <rect x="380" y="500" width="120" height="20" rx="4" fill="#D1FAE5"/>
  <text x="440" y="514" font-family="Arial" font-size="12" fill="#059669" text-anchor="middle">Resources</text>
</svg>
